<?xml version="1.0" standalone="no"?><!DOCTYPE svg PUBLIC "-//W3C//DTD SVG 1.1//EN" "http://www.w3.org/Graphics/SVG/1.1/DTD/svg11.dtd"><svg t="1515549707656" class="icon" style="" viewBox="0 0 1024 1024" version="1.1" xmlns="http://www.w3.org/2000/svg" p-id="852" xmlns:xlink="http://www.w3.org/1999/xlink" width="200" height="200"><defs><style type="text/css"></style></defs><path d="M512 512m-476.330667 0a476.330667 476.330667 0 1 0 952.661334 0 476.330667 476.330667 0 1 0-952.661334 0Z" fill="#707070" p-id="853"></path><path d="M512 512m-434.688 0a434.688 434.688 0 1 0 869.376 0 434.688 434.688 0 1 0-869.376 0Z" fill="#707070" p-id="854"></path><path d="M114.176 599.381333c0-253.610667 205.482667-459.093333 459.093333-459.093333 98.304 0 189.44 31.061333 264.021334 83.626667C757.589333 134.144 641.536 77.312 512 77.312c-239.957333 0-434.688 194.56-434.688 434.688 0 75.264 19.114667 146.090667 52.736 207.701333-10.24-38.4-15.872-78.677333-15.872-120.32z" fill="#707070" p-id="855"></path><path d="M341.333333 390.826667m-63.658666 0a63.658667 63.658667 0 1 0 127.317333 0 63.658667 63.658667 0 1 0-127.317333 0Z" fill="#707070" p-id="856"></path><path d="M682.666667 390.826667m-63.658667 0a63.658667 63.658667 0 1 0 127.317333 0 63.658667 63.658667 0 1 0-127.317333 0Z" fill="#707070" p-id="857"></path><path d="M770.56 559.445333c-0.512 83.114667-43.52 163.84-120.661333 208.554667-39.082667 22.698667-81.92 32.938667-124.074667 32.426667v45.397333c49.834667 0.512 100.522667-11.776 146.773333-38.570667 91.306667-52.906667 142.677333-148.309333 143.530667-246.784l-45.568-1.024z" fill="#707070" p-id="858"></path></svg>